<?xml version="1.0" standalone="no"?>
<!DOCTYPE svg PUBLIC "-//W3C//DTD SVG 20010904//EN"
 "http://www.w3.org/TR/2001/REC-SVG-20010904/DTD/svg10.dtd">
<svg version="1.0" xmlns="http://www.w3.org/2000/svg"
 width="640.000000pt" height="640.000000pt" viewBox="0 0 640.000000 640.000000"
 preserveAspectRatio="xMidYMid meet">
<metadata>
Created by potrace 1.11, written by Peter Selinger 2001-2013
</metadata>
<g transform="translate(0.000000,640.000000) scale(0.100000,-0.100000)"
fill="#000000" stroke="none">
<path d="M3230 6265 c-1 -11 -4 -29 -6 -40 -7 -34 -18 -109 -18 -132 -1 -13
-5 -23 -9 -23 -4 0 -7 -6 -6 -12 2 -7 0 -26 -4 -43 -4 -16 -9 -50 -12 -74 -3
-24 -7 -47 -9 -50 -2 -3 -7 -31 -11 -61 -3 -30 -11 -75 -17 -100 -5 -25 -12
-61 -14 -80 -2 -19 -6 -46 -9 -60 -10 -48 -15 -75 -19 -100 -3 -14 -12 -68
-21 -120 -9 -52 -18 -106 -20 -120 -8 -58 -14 -93 -25 -145 -6 -31 -13 -68
-14 -83 -2 -15 -6 -38 -9 -52 -4 -14 -8 -41 -11 -60 -3 -19 -7 -44 -9 -55 -5
-22 -17 -91 -22 -128 -2 -12 -15 -89 -30 -170 -14 -82 -28 -163 -30 -180 -3
-18 -7 -43 -10 -57 -3 -14 -8 -38 -10 -55 -11 -61 -25 -141 -29 -162 -3 -11
-8 -42 -11 -67 -8 -51 -10 -52 -51 -32 -15 8 -31 13 -36 10 -4 -3 -8 -1 -8 4
0 10 -174 96 -186 92 -4 -1 -10 2 -13 7 -3 5 -48 30 -100 55 -72 36 -98 45
-108 36 -10 -8 -12 -7 -8 4 5 12 -12 24 -61 47 -55 26 -69 29 -83 19 -14 -11
-14 -11 -3 3 11 15 9 18 -17 27 -16 6 -32 8 -35 6 -3 -2 -4 -1 -1 3 6 8 -119
73 -140 73 -8 0 -15 5 -15 10 0 6 -7 10 -15 10 -20 0 -19 -12 3 -36 10 -11 17
-24 15 -31 -2 -6 3 -18 12 -26 8 -9 15 -23 15 -31 0 -9 5 -16 10 -16 6 0 10
-9 10 -20 0 -11 5 -20 10 -20 6 0 9 -3 8 -7 -4 -18 55 -132 65 -126 5 3 7 1 3
-5 -3 -6 7 -37 24 -68 16 -32 30 -65 30 -72 0 -8 6 -12 15 -9 8 4 17 1 21 -5
4 -7 3 -8 -4 -4 -17 10 -15 -20 3 -37 8 -8 11 -17 8 -21 -4 -3 -1 -6 5 -6 6 0
9 -6 6 -13 -3 -8 2 -20 11 -27 8 -7 15 -19 15 -27 0 -8 9 -28 21 -44 11 -16
18 -29 16 -29 -3 0 17 -44 43 -97 27 -54 48 -99 47 -100 -1 0 -18 -4 -37 -7
-34 -5 -191 -32 -240 -41 -14 -3 -45 -8 -70 -11 -25 -3 -48 -8 -51 -10 -3 -1
-28 -6 -55 -9 -27 -4 -67 -11 -89 -15 -22 -5 -62 -12 -90 -15 -27 -3 -61 -8
-75 -11 -42 -10 -63 -13 -105 -19 -22 -4 -76 -12 -120 -20 -44 -8 -96 -16
-115 -20 -19 -3 -60 -10 -90 -15 -30 -5 -71 -12 -90 -15 -19 -3 -46 -7 -60
-10 -14 -3 -38 -7 -55 -9 -28 -5 -280 -48 -355 -61 -19 -3 -46 -8 -60 -10 -43
-6 -271 -44 -479 -80 -13 -2 -44 -7 -68 -11 -23 -3 -43 -9 -43 -13 0 -4 37
-13 83 -19 45 -6 94 -14 110 -17 58 -11 84 -16 142 -25 67 -10 167 -27 205
-35 13 -2 42 -7 65 -10 38 -6 190 -31 245 -40 14 -3 54 -10 89 -15 36 -6 67
-12 70 -14 3 -2 30 -7 60 -10 30 -4 64 -9 75 -11 23 -5 59 -11 120 -20 46 -7
57 -9 106 -19 19 -4 49 -9 65 -11 17 -2 30 -4 30 -5 0 -1 16 -3 35 -6 39 -4
35 -4 210 -34 69 -12 136 -23 150 -25 48 -7 93 -16 102 -21 4 -3 8 1 8 8 0 10
2 10 9 0 5 -8 29 -15 59 -15 27 -1 48 -5 45 -9 -2 -5 8 -8 24 -9 15 0 35 -2
43 -4 19 -3 72 -12 125 -20 73 -11 75 -12 60 -43 -8 -15 -15 -34 -17 -42 -2
-8 -6 -17 -9 -20 -11 -9 -98 -190 -91 -190 4 0 2 -4 -3 -8 -14 -10 -88 -160
-88 -178 0 -8 -5 -14 -10 -14 -5 0 -6 -7 -3 -16 3 -8 2 -13 -3 -10 -11 7 -33
-43 -25 -57 4 -7 3 -8 -1 -4 -8 7 -169 -302 -162 -310 6 -5 132 58 139 71 4 6
8 7 8 1 0 -5 5 -4 12 3 7 7 20 12 30 12 10 0 18 4 18 10 0 5 3 9 8 8 11 -2
122 53 122 61 0 4 10 7 22 8 11 1 24 7 28 13 4 7 9 11 11 9 9 -5 49 13 49 22
0 6 5 7 10 4 6 -3 10 -1 10 4 0 6 4 10 9 8 14 -4 190 86 185 95 -3 4 1 6 8 3
7 -3 58 17 113 45 54 27 101 48 102 46 3 -3 53 -267 69 -361 4 -25 29 -159 59
-320 3 -16 8 -48 11 -70 4 -22 15 -83 25 -135 11 -52 21 -107 24 -122 9 -61
26 -156 35 -198 5 -25 12 -62 15 -84 3 -21 7 -41 9 -45 3 -4 7 -27 10 -53 3
-25 12 -79 20 -119 8 -41 17 -90 20 -109 3 -19 8 -44 10 -55 2 -11 23 -127 47
-258 43 -237 48 -249 63 -150 3 21 12 74 20 118 9 44 18 94 20 110 3 17 7 41
10 55 10 39 32 164 41 225 3 17 7 41 10 55 3 14 18 97 34 185 17 88 32 174 36
190 3 17 8 45 11 64 3 18 8 43 10 55 3 18 15 81 28 151 2 11 7 38 11 60 4 22
9 51 11 65 3 14 18 99 35 189 17 90 28 170 25 178 -3 8 -2 12 3 9 5 -3 11 13
14 37 5 35 22 131 41 232 2 11 7 39 11 62 4 24 12 46 18 50 7 3 9 3 5 -2 -4
-4 4 -14 18 -22 32 -16 48 -17 38 -1 -4 7 -3 8 5 4 6 -4 9 -11 6 -16 -3 -5 4
-14 15 -20 11 -6 20 -8 20 -5 0 3 11 -2 25 -11 14 -9 25 -12 25 -8 0 5 4 4 8
-2 12 -18 72 -45 84 -38 6 4 8 3 5 -3 -8 -13 169 -97 184 -87 8 4 9 3 5 -4 -7
-12 42 -42 68 -42 8 0 16 -3 18 -7 2 -7 130 -73 148 -78 3 -1 37 -17 75 -36
39 -18 75 -34 80 -34 6 0 15 -7 22 -15 24 -32 24 1 -1 46 -14 25 -26 51 -26
56 0 6 -10 24 -22 41 -13 18 -21 33 -18 34 3 1 -2 11 -11 21 -8 10 -14 23 -11
30 2 7 -1 12 -7 12 -6 0 -11 6 -11 13 -1 24 -136 287 -145 280 -4 -4 -5 -3 -2
3 4 6 0 24 -8 40 -7 16 -19 42 -24 57 -6 16 -15 25 -21 22 -6 -3 -7 1 -4 9 3
9 2 16 -3 16 -5 0 -9 10 -10 22 -1 11 -7 24 -13 28 -7 4 -12 11 -12 16 -1 25
-19 54 -30 48 -6 -4 -8 -3 -4 4 10 17 -12 64 -26 56 -10 -5 -10 -4 -1 6 7 8
18 15 25 16 7 1 29 5 48 9 39 8 61 12 105 19 36 6 49 8 240 41 83 15 164 28
180 31 17 2 41 6 55 9 24 5 175 31 235 41 17 3 66 11 110 19 44 8 97 17 119
21 21 3 48 8 60 10 11 2 37 7 56 10 48 7 66 10 135 23 33 6 77 13 99 17 21 3
48 8 60 10 11 2 37 7 56 10 19 3 41 7 48 9 7 3 34 7 60 11 26 3 108 17 182 31
74 13 153 26 174 29 55 7 249 43 252 47 2 2 -45 11 -104 20 -59 9 -118 19
-132 22 -14 3 -43 8 -65 11 -22 3 -49 8 -60 10 -11 2 -36 6 -55 9 -19 4 -111
20 -205 36 -209 37 -208 37 -264 45 -60 9 -79 12 -99 18 -9 3 -35 7 -57 10
-22 3 -51 8 -65 11 -14 3 -38 7 -55 9 -16 2 -41 7 -55 10 -14 3 -41 8 -60 11
-37 5 -60 9 -150 26 -30 6 -68 12 -85 14 -16 2 -55 8 -85 14 -82 15 -520 91
-560 97 -61 9 -84 14 -112 21 l-27 8 59 118 c33 64 57 117 54 117 -3 0 2 7 10
16 9 8 14 20 11 25 -4 5 -1 9 5 9 6 0 9 4 6 9 -4 5 -3 11 2 13 14 6 112 219
106 230 -4 6 -3 8 3 5 12 -8 46 61 37 75 -4 6 -3 8 3 5 12 -8 65 101 57 116
-4 7 -3 8 1 4 9 -8 45 56 45 80 0 7 4 13 8 13 5 0 14 11 20 25 11 23 10 25 -6
17 -9 -5 -34 -17 -54 -27 -21 -9 -35 -21 -32 -26 3 -5 -1 -6 -9 -4 -7 3 -92
-33 -188 -80 -230 -114 -239 -119 -239 -126 0 -3 -6 -6 -14 -6 -12 0 -124 -52
-290 -135 -21 -10 -42 -16 -46 -11 -6 6 -31 129 -45 228 -3 20 -8 46 -26 147
-13 76 -15 87 -34 193 -15 89 -22 127 -31 175 -2 14 -9 56 -14 94 -6 37 -12
71 -14 75 -2 3 -7 26 -10 51 -3 25 -10 70 -16 100 -5 30 -18 109 -30 175 -37
213 -60 349 -71 410 -5 33 -12 71 -14 85 -33 184 -36 203 -39 225 -3 17 -17
99 -21 115 -1 3 -7 46 -15 95 -13 91 -28 140 -30 100z m-1090 -2141 c0 -8 -19
-13 -24 -6 -3 5 1 9 9 9 8 0 15 -2 15 -3z m141 -337 c-10 -9 -11 -8 -5 6 3 10
9 15 12 12 3 -3 0 -11 -7 -18z m280 -1154 c13 -16 12 -17 -3 -4 -10 7 -18 15
-18 17 0 8 8 3 21 -13z m-191 -27 c0 -3 -4 -8 -10 -11 -5 -3 -10 -1 -10 4 0 6
5 11 10 11 6 0 10 -2 10 -4z m281 -43 c13 -16 12 -17 -3 -4 -17 13 -22 21 -14
21 2 0 10 -8 17 -17z m-201 -37 c0 -3 -4 -8 -10 -11 -5 -3 -10 -1 -10 4 0 6 5
11 10 11 6 0 10 -2 10 -4z m1280 -6 c0 -5 -5 -10 -11 -10 -5 0 -7 5 -4 10 3 6
8 10 11 10 2 0 4 -4 4 -10z m315 -80 c3 -5 1 -10 -4 -10 -6 0 -11 5 -11 10 0
6 2 10 4 10 3 0 8 -4 11 -10z m-1478 -185 c0 -8 -4 -12 -9 -9 -5 3 -6 10 -3
15 9 13 12 11 12 -6z m-37 -49 c0 -3 -4 -8 -10 -11 -5 -3 -10 -1 -10 4 0 6 5
11 10 11 6 0 10 -2 10 -4z m-206 -124 c3 -5 -1 -9 -9 -9 -8 0 -12 4 -9 9 3 4
7 8 9 8 2 0 6 -4 9 -8z m2061 -130 c-3 -3 -11 0 -18 7 -9 10 -8 11 6 5 10 -3
15 -9 12 -12z m65 14 c0 -3 -4 -8 -10 -11 -5 -3 -10 -1 -10 4 0 6 5 11 10 11
6 0 10 -2 10 -4z"/>
</g>
</svg>
