<svg version="1" xmlns="http://www.w3.org/2000/svg" width="853.333" height="853.333" viewBox="0 0 640.000000 640.000000"><path d="M323 13.5c-.1 1.1-.4 2.9-.6 4-.7 3.4-1.8 10.9-1.8 13.2-.1 1.3-.5 2.3-.9 2.3s-.7.6-.6 1.2c.2.7 0 2.6-.4 4.3-.4 1.6-.9 5-1.2 7.4-.3 2.4-.7 4.7-.9 5-.2.3-.7 3.1-1.1 6.1-.3 3-1.1 7.5-1.7 10-.5 2.5-1.2 6.1-1.4 8-.2 1.9-.6 4.6-.9 6-1 4.8-1.5 7.5-1.9 10-.3 1.4-1.2 6.8-2.1 12-.9 5.2-1.8 10.6-2 12-.8 5.8-1.4 9.3-2.5 14.5-.6 3.1-1.3 6.8-1.4 8.3-.2 1.5-.6 3.8-.9 5.2-.4 1.4-.8 4.1-1.1 6-.3 1.9-.7 4.4-.9 5.5-.5 2.2-1.7 9.1-2.2 12.8-.2 1.2-1.5 8.9-3 17-1.4 8.2-2.8 16.3-3 18-.3 1.8-.7 4.3-1 5.7-.3 1.4-.8 3.8-1 5.5-1.1 6.1-2.5 14.1-2.9 16.2-.3 1.1-.8 4.2-1.1 6.7-.8 5.1-1 5.2-5.1 3.2-1.5-.8-3.1-1.3-3.6-1-.4.3-.8.1-.8-.4 0-1-17.4-9.6-18.6-9.2-.4.1-1-.2-1.3-.7-.3-.5-4.8-3-10-5.5-7.2-3.6-9.8-4.5-10.8-3.6-1 .8-1.2.7-.8-.4.5-1.2-1.2-2.4-6.1-4.7-5.5-2.6-6.9-2.9-8.3-1.9-1.4 1.1-1.4 1.1-.3-.3 1.1-1.5.9-1.8-1.7-2.7-1.6-.6-3.2-.8-3.5-.6-.3.2-.4.1-.1-.3.6-.8-11.9-7.3-14-7.3-.8 0-1.5-.5-1.5-1 0-.6-.7-1-1.5-1-2 0-1.9 1.2.3 3.6 1 1.1 1.7 2.4 1.5 3.1-.2.6.3 1.8 1.2 2.6.8.9 1.5 2.3 1.5 3.1 0 .9.5 1.6 1 1.6.6 0 1 .9 1 2s.5 2 1 2c.6 0 .9.3.8.7-.4 1.8 5.5 13.2 6.5 12.6.5-.3.7-.1.3.5-.3.6.7 3.7 2.4 6.8 1.6 3.2 3 6.5 3 7.2 0 .8.6 1.2 1.5.9.8-.4 1.7-.1 2.1.5.4.7.3.8-.4.4-1.7-1-1.5 2 .3 3.7.8.8 1.1 1.7.8 2.1-.4.3-.1.6.5.6s.9.6.6 1.3c-.3.8.2 2 1.1 2.7.8.7 1.5 1.9 1.5 2.7 0 .8.9 2.8 2.1 4.4 1.1 1.6 1.8 2.9 1.6 2.9-.3 0 1.7 4.4 4.3 9.7 2.7 5.4 4.8 9.9 4.7 10-.1 0-1.8.4-3.7.7-3.4.5-19.1 3.2-24 4.1-1.4.3-4.5.8-7 1.1-2.5.3-4.8.8-5.1 1-.3.1-2.8.6-5.5.9-2.7.4-6.7 1.1-8.9 1.5-2.2.5-6.2 1.2-9 1.5-2.7.3-6.1.8-7.5 1.1-4.2 1-6.3 1.3-10.5 1.9-2.2.4-7.6 1.2-12 2s-9.6 1.6-11.5 2c-1.9.3-6 1-9 1.5s-7.1 1.2-9 1.5c-1.9.3-4.6.7-6 1-1.4.3-3.8.7-5.5.9-2.8.5-28 4.8-35.5 6.1-1.9.3-4.6.8-6 1-4.3.6-27.1 4.4-47.9 8-1.3.2-4.4.7-6.8 1.1-2.3.3-4.3.9-4.3 1.3s3.7 1.3 8.3 1.9c4.5.6 9.4 1.4 11 1.7 5.8 1.1 8.4 1.6 14.2 2.5 6.7 1 16.7 2.7 20.5 3.5 1.3.2 4.2.7 6.5 1 3.8.6 19 3.1 24.5 4 1.4.3 5.4 1 8.9 1.5 3.6.6 6.7 1.2 7 1.4.3.2 3 .7 6 1 3 .4 6.4.9 7.5 1.1 2.3.5 5.9 1.1 12 2 4.6.7 5.7.9 10.6 1.9 1.9.4 4.9.9 6.5 1.1 1.7.2 3 .4 3 .5 0 .1 1.6.3 3.5.6 3.9.4 3.5.4 21 3.4 6.9 1.2 13.6 2.3 15 2.5 4.8.7 9.3 1.6 10.2 2.1.4.3.8-.1.8-.8 0-1 .2-1 .9 0 .5.8 2.9 1.5 5.9 1.5 2.7.1 4.8.5 4.5.9-.2.5.8.8 2.4.9 1.5 0 3.5.2 4.3.4 1.9.3 7.2 1.2 12.5 2 7.3 1.1 7.5 1.2 6 4.3-.8 1.5-1.5 3.4-1.7 4.2-.2.8-.6 1.7-.9 2-1.1.9-9.8 19-9.1 19 .4 0 .2.4-.3.8-1.4 1-8.8 16-8.8 17.8 0 .8-.5 1.4-1 1.4s-.6.7-.3 1.6c.3.8.2 1.3-.3 1-1.1-.7-3.3 4.3-2.5 5.7.4.7.3.8-.1.4-.8-.7-16.9 30.2-16.2 31 .6.5 13.2-5.8 13.9-7.1.4-.6.8-.7.8-.1 0 .5.5.4 1.2-.3s2-1.2 3-1.2 1.8-.4 1.8-1c0-.5.3-.9.8-.8 1.1.2 12.2-5.3 12.2-6.1 0-.4 1-.7 2.2-.8 1.1-.1 2.4-.7 2.8-1.3.4-.7.9-1.1 1.1-.9.9.5 4.9-1.3 4.9-2.2 0-.6.5-.7 1-.4.6.3 1 .1 1-.4 0-.6.4-1 .9-.8 1.4.4 19-8.6 18.5-9.5-.3-.4.1-.6.8-.3.7.3 5.8-1.7 11.3-4.5 5.4-2.7 10.1-4.8 10.2-4.6.3.3 5.3 26.7 6.9 36.1.4 2.5 2.9 15.9 5.9 32 .3 1.6.8 4.8 1.1 7 .4 2.2 1.5 8.3 2.5 13.5 1.1 5.2 2.1 10.7 2.4 12.2.9 6.1 2.6 15.6 3.5 19.8.5 2.5 1.2 6.2 1.5 8.4.3 2.1.7 4.1.9 4.5.3.4.7 2.7 1 5.3.3 2.5 1.2 7.9 2 11.9.8 4.1 1.7 9 2 10.9.3 1.9.8 4.4 1 5.5.2 1.1 2.3 12.7 4.7 25.8 4.3 23.7 4.8 24.9 6.3 15 .3-2.1 1.2-7.4 2-11.8.9-4.4 1.8-9.4 2-11 .3-1.7.7-4.1 1-5.5 1-3.9 3.2-16.4 4.1-22.5.3-1.7.7-4.1 1-5.5.3-1.4 1.8-9.7 3.4-18.5 1.7-8.8 3.2-17.4 3.6-19 .3-1.7.8-4.5 1.1-6.4.3-1.8.8-4.3 1-5.5.3-1.8 1.5-8.1 2.8-15.1.2-1.1.7-3.8 1.1-6 .4-2.2.9-5.1 1.1-6.5.3-1.4 1.8-9.9 3.5-18.9 1.7-9 2.8-17 2.5-17.8-.3-.8-.2-1.2.3-.9.5.3 1.1-1.3 1.4-3.7.5-3.5 2.2-13.1 4.1-23.2.2-1.1.7-3.9 1.1-6.2.4-2.4 1.2-4.6 1.8-5 .7-.3.9-.3.5.2-.4.4.4 1.4 1.8 2.2 3.2 1.6 4.8 1.7 3.8.1-.4-.7-.3-.8.5-.4.6.4.9 1.1.6 1.6-.3.5.4 1.4 1.5 2 1.1.6 2 .8 2 .5 0-.3 1.1.2 2.5 1.1 1.4.9 2.5 1.2 2.5.8 0-.5.4-.4.8.2 1.2 1.8 7.2 4.5 8.4 3.8.6-.4.8-.3.5.3-.8 1.3 16.9 9.7 18.4 8.7.8-.4.9-.3.5.4-.7 1.2 4.2 4.2 6.8 4.2.8 0 1.6.3 1.8.7.2.7 13 7.3 14.8 7.8.3.1 3.7 1.7 7.5 3.6 3.9 1.8 7.5 3.4 8 3.4.6 0 1.5.7 2.2 1.5 2.4 3.2 2.4-.1-.1-4.6-1.4-2.5-2.6-5.1-2.6-5.6 0-.6-1-2.4-2.2-4.1-1.3-1.8-2.1-3.3-1.8-3.4.3-.1-.2-1.1-1.1-2.1-.8-1-1.4-2.3-1.1-3 .2-.7-.1-1.2-.7-1.2s-1.1-.6-1.1-1.3c-.1-2.4-13.6-28.7-14.5-28-.4.4-.5.3-.2-.3.4-.6 0-2.4-.8-4-.7-1.6-1.9-4.2-2.4-5.7-.6-1.6-1.5-2.5-2.1-2.2-.6.3-.7-.1-.4-.9.3-.9.2-1.6-.3-1.6s-.9-1-1-2.2c-.1-1.1-.7-2.4-1.3-2.8-.7-.4-1.2-1.1-1.2-1.6-.1-2.5-1.9-5.4-3-4.8-.6.4-.8.3-.4-.4 1-1.7-1.2-6.4-2.6-5.6-1 .5-1 .4-.1-.6.7-.8 1.8-1.5 2.5-1.6.7-.1 2.9-.5 4.8-.9 3.9-.8 6.1-1.2 10.5-1.9 3.6-.6 4.9-.8 24-4.1 8.3-1.5 16.4-2.8 18-3.1 1.7-.2 4.1-.6 5.5-.9 2.4-.5 17.5-3.1 23.5-4.1 1.7-.3 6.6-1.1 11-1.9 4.4-.8 9.7-1.7 11.9-2.1 2.1-.3 4.8-.8 6-1 1.1-.2 3.7-.7 5.6-1 4.8-.7 6.6-1 13.5-2.3 3.3-.6 7.7-1.3 9.9-1.7 2.1-.3 4.8-.8 6-1 1.1-.2 3.7-.7 5.6-1 1.9-.3 4.1-.7 4.8-.9.7-.3 3.4-.7 6-1.1 2.6-.3 10.8-1.7 18.2-3.1 7.4-1.3 15.3-2.6 17.4-2.9 5.5-.7 24.9-4.3 25.2-4.7.2-.2-4.5-1.1-10.4-2-5.9-.9-11.8-1.9-13.2-2.2-1.4-.3-4.3-.8-6.5-1.1-2.2-.3-4.9-.8-6-1-1.1-.2-3.6-.6-5.5-.9-1.9-.4-11.1-2-20.5-3.6-20.9-3.7-20.8-3.7-26.4-4.5-6-.9-7.9-1.2-9.9-1.8-.9-.3-3.5-.7-5.7-1-2.2-.3-5.1-.8-6.5-1.1-1.4-.3-3.8-.7-5.5-.9-1.6-.2-4.1-.7-5.5-1-1.4-.3-4.1-.8-6-1.1-3.7-.5-6-.9-15-2.6-3-.6-6.8-1.2-8.5-1.4-1.6-.2-5.5-.8-8.5-1.4-8.2-1.5-52-9.1-56-9.7-6.1-.9-8.4-1.4-11.2-2.1l-2.7-.8 5.9-11.8c3.3-6.4 5.7-11.7 5.4-11.7-.3 0 .2-.7 1-1.6.9-.8 1.4-2 1.1-2.5-.4-.5-.1-.9.5-.9s.9-.4.6-.9c-.4-.5-.3-1.1.2-1.3 1.4-.6 11.2-21.9 10.6-23-.4-.6-.3-.8.3-.5 1.2.8 4.6-6.1 3.7-7.5-.4-.6-.3-.8.3-.5 1.2.8 6.5-10.1 5.7-11.6-.4-.7-.3-.8.1-.4.9.8 4.5-5.6 4.5-8 0-.7.4-1.3.8-1.3.5 0 1.4-1.1 2-2.5 1.1-2.3 1-2.5-.6-1.7-.9.5-3.4 1.7-5.4 2.7-2.1.9-3.5 2.1-3.2 2.6.3.5-.1.6-.9.4-.7-.3-9.2 3.3-18.8 8-23 11.4-23.9 11.9-23.9 12.6 0 .3-.6.6-1.4.6-1.2 0-12.4 5.2-29 13.5-2.1 1-4.2 1.6-4.6 1.1-.6-.6-3.1-12.9-4.5-22.8-.3-2-.8-4.6-2.6-14.7-1.3-7.6-1.5-8.7-3.4-19.3-1.5-8.9-2.2-12.7-3.1-17.5-.2-1.4-.9-5.6-1.4-9.4-.6-3.7-1.2-7.1-1.4-7.5-.2-.3-.7-2.6-1-5.1-.3-2.5-1-7-1.6-10-.5-3-1.8-10.9-3-17.5-3.7-21.3-6-34.9-7.1-41-.5-3.3-1.2-7.1-1.4-8.5-3.3-18.4-3.6-20.3-3.9-22.5-.3-1.7-1.7-9.9-2.1-11.5-.1-.3-.7-4.6-1.5-9.5-1.3-9.1-2.8-14-3-10zM214 227.6c0 .8-1.9 1.3-2.4.6-.3-.5.1-.9.9-.9s1.5.2 1.5.3zm14.1 33.7c-1 .9-1.1.8-.5-.6.3-1 .9-1.5 1.2-1.2.3.3 0 1.1-.7 1.8zm28 115.4c1.3 1.6 1.2 1.7-.3.4-1-.7-1.8-1.5-1.8-1.7 0-.8.8-.3 2.1 1.3zm-19.1 2.7c0 .3-.4.8-1 1.1-.5.3-1 .1-1-.4 0-.6.5-1.1 1-1.1.6 0 1 .2 1 .4zm28.1 4.3c1.3 1.6 1.2 1.7-.3.4-1.7-1.3-2.2-2.1-1.4-2.1.2 0 1 .8 1.7 1.7zm-20.1 3.7c0 .3-.4.8-1 1.1-.5.3-1 .1-1-.4 0-.6.5-1.1 1-1.1.6 0 1 .2 1 .4zm128 .6c0 .5-.5 1-1.1 1-.5 0-.7-.5-.4-1 .3-.6.8-1 1.1-1 .2 0 .4.4.4 1zm31.5 8c.3.5.1 1-.4 1-.6 0-1.1-.5-1.1-1 0-.6.2-1 .4-1 .3 0 .8.4 1.1 1zm-147.8 18.5c0 .8-.4 1.2-.9.9-.5-.3-.6-1-.3-1.5.9-1.3 1.2-1.1 1.2.6zm-3.7 4.9c0 .3-.4.8-1 1.1-.5.3-1 .1-1-.4 0-.6.5-1.1 1-1.1.6 0 1 .2 1 .4zm-20.6 12.4c.3.5-.1.9-.9.9s-1.2-.4-.9-.9c.3-.4.7-.8.9-.8.2 0 .6.4.9.8zm206.1 13c-.3.3-1.1 0-1.8-.7-.9-1-.8-1.1.6-.5 1 .3 1.5.9 1.2 1.2zm6.5-1.4c0 .3-.4.8-1 1.1-.5.3-1 .1-1-.4 0-.6.5-1.1 1-1.1.6 0 1 .2 1 .4z"/></svg>