<?xml version="1.0" standalone="no"?>
<!DOCTYPE svg PUBLIC "-//W3C//DTD SVG 20010904//EN"
 "http://www.w3.org/TR/2001/REC-SVG-20010904/DTD/svg10.dtd">
<svg version="1.0" xmlns="http://www.w3.org/2000/svg"
 width="700.000000pt" height="700.000000pt" viewBox="0 0 700.000000 700.000000"
 preserveAspectRatio="xMidYMid meet">
<metadata>
Created by potrace 1.11, written by Peter Selinger 2001-2013
</metadata>
<g transform="translate(0.000000,700.000000) scale(0.100000,-0.100000)"
fill="#000000" stroke="none">
<path d="M538 5035 c-2 -2 -32 -6 -67 -9 -94 -9 -217 -42 -287 -76 -125 -61
-185 -154 -180 -279 5 -113 43 -163 185 -238 125 -66 161 -141 186 -390 3 -29
7 -74 10 -100 20 -202 21 -975 0 -1080 -1 -10 -6 -47 -10 -83 -13 -130 -35
-168 -132 -229 -71 -45 -129 -110 -143 -162 -26 -95 12 -232 81 -293 82 -73
202 -121 361 -143 69 -10 386 -10 463 0 279 35 448 161 458 342 7 119 -28 178
-144 246 -123 71 -146 135 -153 414 -3 153 7 280 28 330 14 32 17 34 41 25 30
-12 98 -58 135 -92 14 -13 63 -57 110 -98 46 -41 91 -82 100 -90 21 -20 97
-88 195 -175 44 -38 107 -95 140 -125 119 -108 238 -215 255 -230 62 -54 167
-148 184 -165 12 -11 73 -66 136 -122 63 -55 129 -114 147 -130 71 -64 87 -75
144 -104 119 -61 238 -47 323 36 74 74 118 193 142 390 3 22 7 398 8 835 4
1110 3 1106 160 1193 81 45 115 75 151 132 28 44 28 204 0 260 -46 93 -149
157 -305 191 -71 16 -130 19 -365 18 -254 0 -288 -2 -367 -22 -203 -50 -296
-140 -302 -292 -6 -120 42 -197 166 -271 89 -53 104 -69 120 -139 16 -74 18
-424 1 -441 -13 -13 -69 15 -133 68 -35 29 -485 420 -600 523 -36 32 -87 76
-114 99 -27 24 -54 48 -61 54 -6 7 -40 37 -76 67 -76 66 -152 133 -159 141
-22 24 -182 145 -213 161 -91 46 -121 50 -374 53 -133 1 -243 1 -245 0z"/>
<path d="M4792 5029 c-138 -14 -177 -20 -260 -39 -262 -62 -393 -175 -395
-339 0 -49 5 -77 20 -106 34 -64 74 -90 201 -130 128 -41 138 -60 147 -280 3
-77 8 -183 12 -235 9 -123 9 -1036 0 -1160 -10 -146 -38 -207 -113 -244 -99
-47 -121 -61 -152 -90 -42 -39 -67 -119 -59 -192 11 -105 69 -173 183 -210 44
-15 140 -17 868 -19 719 -3 878 -6 959 -20 10 -2 51 -9 90 -15 40 -7 81 -14
92 -16 11 -3 46 -5 77 -5 157 -2 308 146 423 416 135 317 99 644 -85 768 -94
63 -228 63 -296 0 -43 -40 -61 -73 -99 -179 -79 -216 -138 -278 -306 -318 -84
-20 -293 -17 -328 4 -62 37 -88 86 -98 186 -9 94 -9 1457 1 1516 9 61 44 96
124 128 33 13 78 36 99 50 108 72 118 271 20 378 -46 50 -171 104 -273 118
-27 3 -52 8 -55 10 -37 22 -640 39 -797 23z"/>
</g>
</svg>
